<?xml version="1.0" standalone="no"?>
<!DOCTYPE svg PUBLIC "-//W3C//DTD SVG 20010904//EN"
 "http://www.w3.org/TR/2001/REC-SVG-20010904/DTD/svg10.dtd">
<svg version="1.0" xmlns="http://www.w3.org/2000/svg"
 width="384.000000pt" height="384.000000pt" viewBox="0 0 384.000000 384.000000"
 preserveAspectRatio="xMidYMid meet">
<metadata>
Created by potrace 1.14, written by Peter Selinger 2001-2017
</metadata>
<g transform="translate(0.000000,384.000000) scale(0.100000,-0.100000)"
fill="#000000" stroke="none">
<path d="M1859 3803 c-24 -15 -99 -122 -99 -142 0 -4 -8 -19 -19 -32 -10 -13
-31 -49 -46 -79 -16 -30 -34 -62 -40 -70 -7 -8 -23 -35 -36 -60 -13 -25 -28
-49 -32 -55 -10 -11 -52 -84 -93 -160 -14 -27 -29 -52 -33 -55 -3 -3 -19 -30
-35 -60 -17 -30 -36 -61 -43 -68 -7 -7 -13 -18 -13 -23 0 -5 -18 -38 -40 -71
-22 -34 -40 -66 -40 -71 0 -4 -14 -28 -31 -53 -16 -24 -37 -60 -45 -79 -8 -19
-18 -35 -23 -35 -4 0 -16 -21 -26 -46 -15 -39 -15 -50 -4 -70 7 -13 18 -24 25
-24 7 0 14 -6 16 -12 4 -10 99 -14 420 -16 l416 -3 6 -31 c3 -17 6 -52 6 -79
0 -27 5 -49 10 -49 6 0 10 -11 10 -24 0 -43 46 -161 73 -188 15 -15 27 -32 27
-38 0 -5 7 -10 15 -10 8 0 24 -13 37 -30 12 -16 26 -30 31 -30 6 0 34 -19 64
-41 73 -57 72 -97 -4 -129 -31 -13 -29 -28 5 -36 15 -3 46 -17 68 -30 23 -13
68 -33 100 -45 33 -12 61 -26 64 -30 6 -9 141 -62 145 -57 1 2 -32 426 -34
436 -1 2 -14 -6 -30 -17 -16 -12 -34 -21 -39 -21 -5 0 -12 -7 -16 -15 -10 -28
-48 -15 -103 35 -31 28 -73 60 -94 71 -22 11 -39 24 -39 29 0 6 -11 15 -25 20
-26 10 -52 60 -62 118 -3 17 -10 32 -14 32 -5 0 -9 36 -9 80 l0 80 160 0 c92
0 160 4 160 9 0 5 10 11 22 13 12 2 29 15 37 29 13 23 13 33 1 68 -7 23 -17
41 -21 41 -5 0 -23 30 -41 67 -18 37 -41 75 -50 85 -10 10 -18 23 -18 28 0 6
-16 36 -35 66 -19 30 -35 58 -35 63 0 4 -8 19 -19 32 -10 13 -31 49 -47 79
-15 30 -31 57 -35 60 -3 3 -16 23 -28 45 -12 22 -41 74 -66 115 -24 41 -56 98
-71 125 -15 28 -29 52 -33 55 -3 3 -17 25 -30 50 -13 25 -33 56 -43 69 -10 13
-18 28 -18 33 0 7 -84 145 -94 154 -11 11 -47 10 -67 -3z"/>
<path d="M2790 3072 c-85 -8 -156 -19 -158 -23 -2 -5 -23 -9 -48 -9 l-44 0 21
-37 c12 -21 27 -45 35 -53 29 -31 124 -159 124 -167 0 -4 9 -14 20 -21 11 -7
20 -18 20 -25 1 -6 11 -25 24 -40 l22 -28 19 56 c17 48 22 55 46 55 15 0 32
-7 39 -15 7 -8 16 -15 21 -15 5 0 44 -36 86 -80 82 -83 156 -179 167 -217 4
-13 11 -23 15 -23 4 0 21 -33 37 -72 15 -40 31 -75 35 -78 16 -13 59 -230 59
-301 0 -26 5 -51 10 -54 6 -3 10 -35 10 -70 0 -35 -4 -67 -10 -70 -5 -3 -10
-25 -10 -48 0 -43 -11 -121 -31 -215 -10 -49 -13 -53 -37 -50 -19 2 -32 13
-44 37 -9 19 -21 37 -25 40 -4 3 -22 34 -38 68 -17 35 -33 63 -37 63 -4 0 -16
20 -26 44 -25 55 -88 126 -113 126 -11 0 -19 -4 -19 -9 0 -5 -9 -13 -21 -16
-11 -4 -27 -22 -35 -40 -7 -18 -27 -54 -44 -78 -16 -25 -30 -49 -30 -54 0 -5
-17 -36 -39 -69 -21 -32 -41 -69 -45 -81 -4 -13 -12 -23 -17 -23 -5 0 -9 -5
-9 -10 0 -6 -18 -39 -40 -72 -22 -34 -40 -66 -40 -70 0 -5 -18 -37 -40 -70
-22 -34 -40 -67 -40 -73 0 -6 -8 -20 -18 -31 -9 -10 -28 -41 -42 -68 -14 -27
-33 -58 -42 -68 -10 -10 -18 -23 -18 -28 0 -6 -18 -39 -40 -74 -22 -35 -40
-67 -40 -73 0 -5 -8 -18 -17 -29 -10 -11 -29 -42 -43 -69 -14 -28 -33 -61 -42
-74 -25 -33 -23 -48 11 -82 l29 -29 221 0 221 0 0 -24 c0 -27 -93 -118 -147
-144 -18 -9 -33 -19 -33 -22 0 -4 -33 -20 -72 -36 -40 -15 -75 -31 -78 -34 -8
-10 -120 -39 -180 -46 -30 -4 -57 -10 -60 -14 -3 -4 -88 -4 -190 0 -144 6
-203 12 -267 30 -81 22 -83 23 -83 53 0 21 10 41 31 63 l31 32 -48 7 c-27 4
-53 11 -59 15 -5 4 -68 17 -140 30 -71 12 -134 26 -139 31 -6 5 -20 9 -33 9
-16 0 -23 -6 -23 -20 0 -11 3 -20 8 -20 4 0 18 -39 31 -87 13 -49 27 -90 31
-93 3 -3 19 -50 35 -105 16 -55 30 -102 32 -104 5 -6 43 31 43 42 0 18 34 36
68 37 18 0 60 -13 92 -29 33 -16 99 -37 147 -46 48 -10 96 -22 107 -27 10 -5
40 -7 67 -3 33 5 49 3 49 -4 0 -14 87 -14 95 0 5 7 25 8 56 4 28 -4 55 -3 62
3 7 5 35 13 62 16 63 9 178 37 185 45 3 3 30 15 60 25 30 10 80 33 112 51 31
18 66 36 77 40 12 3 21 10 21 14 0 4 22 22 48 39 62 40 195 179 222 231 l20
41 343 0 c376 1 373 0 383 62 6 32 -18 96 -51 138 -7 8 -23 35 -36 60 -13 25
-27 47 -30 50 -4 3 -19 28 -33 55 -15 28 -47 84 -71 125 -25 41 -54 94 -65
117 -12 24 -25 43 -30 43 -17 0 -11 33 20 109 17 40 30 79 30 87 0 8 4 14 8
14 15 0 62 228 62 303 0 20 5 37 10 37 6 0 10 38 10 95 0 57 -4 95 -10 95 -5
0 -10 19 -10 43 0 65 -44 283 -59 297 -3 3 -12 23 -19 45 -21 62 -103 225
-113 225 -5 0 -9 6 -9 13 0 18 -90 131 -176 219 -42 43 -78 78 -80 78 -2 0
-29 19 -59 43 -62 48 -65 60 -31 130 l23 47 -21 -1 c-12 -1 -91 -8 -176 -17z"/>
<path d="M1480 2342 c-30 -42 -61 -90 -69 -105 -8 -16 -20 -31 -28 -34 -7 -3
-13 -9 -13 -14 0 -5 -20 -36 -45 -70 -25 -34 -45 -65 -45 -70 0 -4 21 -9 48
-11 41 -3 47 -6 50 -27 4 -24 -41 -81 -64 -81 -6 0 -14 -6 -17 -14 -7 -19
-155 -88 -234 -110 -34 -9 -75 -23 -90 -31 -40 -21 -92 -19 -100 3 -9 26 -62
72 -83 72 -22 0 -83 -72 -105 -122 -8 -20 -20 -42 -28 -50 -7 -7 -26 -39 -41
-70 -16 -32 -32 -58 -36 -58 -5 0 -12 -10 -16 -22 -4 -13 -24 -50 -45 -84 -22
-34 -39 -64 -39 -67 0 -3 -18 -35 -40 -69 -22 -35 -40 -68 -40 -74 0 -6 -9
-19 -20 -29 -11 -10 -20 -23 -20 -29 0 -6 -16 -35 -35 -63 -19 -29 -35 -56
-35 -61 0 -4 -18 -36 -40 -70 -22 -33 -40 -65 -40 -70 0 -4 -18 -36 -40 -70
-22 -33 -40 -66 -40 -72 0 -5 -3 -10 -7 -10 -5 0 -21 -27 -37 -61 -30 -60 -30
-60 -12 -94 10 -18 28 -36 40 -39 11 -3 321 -6 688 -6 l666 0 31 26 c33 27 40
63 19 86 -7 7 -24 36 -38 63 -14 27 -33 58 -42 69 -10 11 -18 25 -18 31 0 6
-16 35 -36 65 -20 30 -40 64 -44 76 -5 12 -24 45 -43 75 -19 30 -37 64 -41 77
-4 12 -11 22 -16 22 -4 0 -20 26 -36 58 -15 31 -36 66 -46 76 -10 11 -18 25
-18 31 0 6 -18 39 -40 73 -22 33 -40 66 -40 71 0 5 -6 16 -12 23 -24 26 -48
76 -48 102 0 20 6 27 28 32 46 10 156 45 167 54 6 4 27 13 48 19 20 7 59 28
87 47 27 19 54 34 59 34 6 0 15 9 21 20 6 11 17 20 24 20 8 0 26 15 40 33 14
17 33 39 41 48 8 8 28 40 44 70 l29 54 71 -4 72 -3 -31 58 c-27 54 -133 277
-156 331 -8 20 -13 16 -64 -55z"/>
</g>
</svg>
